<svg xmlns="http://www.w3.org/2000/svg" width="648.42" height="648.42" viewBox="0 0 648.42 648.42">
  <g id="Group_2" data-name="Group 2" transform="translate(-489.527 -440.444)">
    <g id="Path_13" data-name="Path 13" transform="translate(586.794 535.973)" fill="none">
      <path d="M229.379,0C356.062,0,458.759,102.7,458.759,229.379s-102.7,229.379-229.379,229.379S0,356.062,0,229.379,102.7,0,229.379,0Z" stroke="none"/>
      <path d="M 229.3794860839844 22.00003051757812 C 115.0300903320312 22.00003051757812 22.00003051757812 115.0300903320312 22.00003051757812 229.3794860839844 C 22.00003051757812 343.7288818359375 115.0300903320312 436.7589416503906 229.3794860839844 436.7589416503906 C 343.7288818359375 436.7589416503906 436.7589416503906 343.7288818359375 436.7589416503906 229.3794860839844 C 436.7589416503906 115.0300903320312 343.7288818359375 22.00003051757812 229.3794860839844 22.00003051757812 M 229.3794860839844 3.0517578125e-05 C 356.062255859375 3.0517578125e-05 458.7589416503906 102.6967163085938 458.7589416503906 229.3794860839844 C 458.7589416503906 356.062255859375 356.062255859375 458.7589416503906 229.3794860839844 458.7589416503906 C 102.6967163085938 458.7589416503906 3.0517578125e-05 356.062255859375 3.0517578125e-05 229.3794860839844 C 3.0517578125e-05 102.6967163085938 102.6967163085938 3.0517578125e-05 229.3794860839844 3.0517578125e-05 Z" stroke="none" fill="#fff"/>
    </g>
    <g id="Path_12" data-name="Path 12" transform="translate(585.169 535.508)" fill="none">
      <path d="M25.088,0H433.671a25.088,25.088,0,0,1,25.088,25.088V433.671a25.088,25.088,0,0,1-25.088,25.088H25.088A25.088,25.088,0,0,1,0,433.671V25.088A25.088,25.088,0,0,1,25.088,0Z" stroke="none"/>
      <path d="M 25.08834838867188 4 C 19.45541381835938 4 14.15966796875 6.19354248046875 10.17660522460938 10.17660522460938 C 6.19354248046875 14.15966796875 4 19.45541381835938 4 25.08834838867188 L 4 433.6706237792969 C 4 439.3034973144531 6.19354248046875 444.5992431640625 10.17660522460938 448.5823059082031 C 14.15966796875 452.5654296875 19.45547485351562 454.7589721679688 25.08834838867188 454.7589721679688 L 433.6706237792969 454.7589721679688 C 439.3034973144531 454.7589721679688 444.5992431640625 452.5654296875 448.5823059082031 448.5823059082031 C 452.5654296875 444.5992431640625 454.7589721679688 439.3034973144531 454.7589721679688 433.6706237792969 L 454.7589721679688 25.08834838867188 C 454.7589721679688 19.45547485351562 452.5654296875 14.15966796875 448.5823059082031 10.17660522460938 C 444.5992431640625 6.19354248046875 439.3034973144531 4 433.6706237792969 4 L 25.08834838867188 4 M 25.08834838867188 0 L 433.6706237792969 0 C 447.5264892578125 0 458.7589721679688 11.232421875 458.7589721679688 25.08834838867188 L 458.7589721679688 433.6706237792969 C 458.7589721679688 447.5264892578125 447.5264892578125 458.7589721679688 433.6706237792969 458.7589721679688 L 25.08834838867188 458.7589721679688 C 11.232421875 458.7589721679688 0 447.5264892578125 0 433.6706237792969 L 0 25.08834838867188 C 0 11.232421875 11.232421875 0 25.08834838867188 0 Z" stroke="none" fill="#fff"/>
    </g>
    <g id="Path_11" data-name="Path 11" transform="matrix(0.996, 0.087, -0.087, 0.996, 606.456, 516.184)" fill="none">
      <path d="M25.088,0H434.461a25.088,25.088,0,0,1,25.088,25.088V434.459a25.088,25.088,0,0,1-25.088,25.088H25.088A25.088,25.088,0,0,1,0,434.459V25.088A25.088,25.088,0,0,1,25.088,0Z" stroke="none"/>
      <path d="M 25.08834838867188 4.000030517578125 C 19.45547485351562 4.000030517578125 14.15972900390625 6.193572998046875 10.17666625976562 10.1766357421875 C 6.19354248046875 14.15969848632812 3.999969482421875 19.45553588867188 3.999969482421875 25.08840942382812 L 3.999969482421875 434.4592590332031 C 3.999969482421875 440.0921325683594 6.19354248046875 445.3879699707031 10.17666625976562 449.3710327148438 C 14.15972900390625 453.3540954589844 19.45547485351562 455.5476379394531 25.08834838867188 455.5476379394531 L 434.4609069824219 455.5476379394531 C 440.0938415527344 455.5476379394531 445.3895874023438 453.3540954589844 449.3726501464844 449.3710327148438 C 453.355712890625 445.3879699707031 455.5492858886719 440.0922241210938 455.5492858886719 434.4592590332031 L 455.5492858886719 25.08840942382812 C 455.5492858886719 19.4554443359375 453.355712890625 14.15969848632812 449.3726501464844 10.1766357421875 C 445.3895874023438 6.193572998046875 440.0938415527344 4.000030517578125 434.4609069824219 4.000030517578125 L 25.08834838867188 4.000030517578125 M 25.08834838867188 3.0517578125e-05 L 434.4609069824219 3.0517578125e-05 C 448.31689453125 3.0517578125e-05 459.5492858886719 11.23245239257812 459.5492858886719 25.08840942382812 L 459.5492858886719 434.4592590332031 C 459.5492858886719 448.3152160644531 448.31689453125 459.5476379394531 434.4609069824219 459.5476379394531 L 25.08834838867188 459.5476379394531 C 11.23248291015625 459.5476379394531 -3.0517578125e-05 448.3152160644531 -3.0517578125e-05 434.4592590332031 L -3.0517578125e-05 25.08840942382812 C -3.0517578125e-05 11.23245239257812 11.23248291015625 3.0517578125e-05 25.08834838867188 3.0517578125e-05 Z" stroke="none" fill="#fff"/>
    </g>
    <g id="Path_10" data-name="Path 10" transform="matrix(0.985, 0.174, -0.174, 0.985, 628.945, 498.927)" fill="none">
      <path d="M25.088,0H434.461a25.088,25.088,0,0,1,25.088,25.088V434.459a25.088,25.088,0,0,1-25.088,25.088H25.088A25.088,25.088,0,0,1,0,434.459V25.088A25.088,25.088,0,0,1,25.088,0Z" stroke="none"/>
      <path d="M 25.08834838867188 3.999969482421875 C 19.45547485351562 3.999969482421875 14.15972900390625 6.19354248046875 10.17666625976562 10.17660522460938 C 6.19354248046875 14.15966796875 3.999969482421875 19.45547485351562 3.999969482421875 25.08834838867188 L 3.999969482421875 434.4591674804688 C 3.999969482421875 440.092041015625 6.19354248046875 445.3878479003906 10.17666625976562 449.3709106445312 C 14.15972900390625 453.3539733886719 19.45547485351562 455.5475463867188 25.08834838867188 455.5475463867188 L 434.4607238769531 455.5475463867188 C 440.0936584472656 455.5475463867188 445.3893432617188 453.3539733886719 449.3724060058594 449.3709106445312 C 453.35546875 445.3878479003906 455.5490417480469 440.0921020507812 455.5490417480469 434.4591674804688 L 455.5490417480469 25.08834838867188 C 455.5490417480469 19.45541381835938 453.35546875 14.15966796875 449.3724060058594 10.17660522460938 C 445.3893432617188 6.19354248046875 440.0936584472656 3.999969482421875 434.4607238769531 3.999969482421875 L 25.08834838867188 3.999969482421875 M 25.08834838867188 -3.0517578125e-05 L 434.4607238769531 -3.0517578125e-05 C 448.316650390625 -3.0517578125e-05 459.5490417480469 11.232421875 459.5490417480469 25.08834838867188 L 459.5490417480469 434.4591674804688 C 459.5490417480469 448.3150939941406 448.316650390625 459.5475463867188 434.4607238769531 459.5475463867188 L 25.08834838867188 459.5475463867188 C 11.23248291015625 459.5475463867188 -3.0517578125e-05 448.3150939941406 -3.0517578125e-05 434.4591674804688 L -3.0517578125e-05 25.08834838867188 C -3.0517578125e-05 11.232421875 11.23248291015625 -3.0517578125e-05 25.08834838867188 -3.0517578125e-05 Z" stroke="none" fill="#fff"/>
    </g>
    <g id="Path_9" data-name="Path 9" transform="matrix(0.966, 0.259, -0.259, 0.966, 652.855, 483.696)" fill="none">
      <path d="M25.088,0H434.461a25.088,25.088,0,0,1,25.088,25.088V434.459a25.088,25.088,0,0,1-25.088,25.088H25.088A25.088,25.088,0,0,1,0,434.459V25.088A25.088,25.088,0,0,1,25.088,0Z" stroke="none"/>
      <path d="M 25.08834838867188 3.999969482421875 C 19.45547485351562 3.999969482421875 14.15972900390625 6.19354248046875 10.17666625976562 10.17660522460938 C 6.19354248046875 14.15966796875 3.999969482421875 19.45547485351562 3.999969482421875 25.08834838867188 L 3.999969482421875 434.4591064453125 C 3.999969482421875 440.0919799804688 6.19354248046875 445.3877258300781 10.17666625976562 449.3707885742188 C 14.15972900390625 453.3539123535156 19.45547485351562 455.5474853515625 25.08834838867188 455.5474853515625 L 434.4605407714844 455.5474853515625 C 440.0934143066406 455.5474853515625 445.3892211914062 453.3539123535156 449.3722839355469 449.3707885742188 C 453.3553466796875 445.3877258300781 455.5489196777344 440.0919799804688 455.5489196777344 434.4591064453125 L 455.5489196777344 25.08834838867188 C 455.5489196777344 19.45541381835938 453.3553466796875 14.15966796875 449.3722839355469 10.17660522460938 C 445.3892211914062 6.19354248046875 440.0934753417969 3.999969482421875 434.4605407714844 3.999969482421875 L 25.08834838867188 3.999969482421875 M 25.08834838867188 -3.0517578125e-05 L 434.4605407714844 -3.0517578125e-05 C 448.3164672851562 -3.0517578125e-05 459.5489196777344 11.232421875 459.5489196777344 25.08834838867188 L 459.5489196777344 434.4591064453125 C 459.5489196777344 448.3149719238281 448.3164672851562 459.5474853515625 434.4605407714844 459.5474853515625 L 25.08834838867188 459.5474853515625 C 11.23248291015625 459.5474853515625 -3.0517578125e-05 448.3149719238281 -3.0517578125e-05 434.4591064453125 L -3.0517578125e-05 25.08834838867188 C -3.0517578125e-05 11.232421875 11.23248291015625 -3.0517578125e-05 25.08834838867188 -3.0517578125e-05 Z" stroke="none" fill="#fff"/>
    </g>
    <g id="Path_8" data-name="Path 8" transform="translate(678.001 470.607) rotate(20)" fill="none">
      <path d="M25.088,0H434.46a25.088,25.088,0,0,1,25.088,25.088V434.459a25.088,25.088,0,0,1-25.088,25.088H25.088A25.088,25.088,0,0,1,0,434.459V25.088A25.088,25.088,0,0,1,25.088,0Z" stroke="none"/>
      <path d="M 25.08834838867188 3.999969482421875 C 19.45541381835938 3.999969482421875 14.15966796875 6.19354248046875 10.17660522460938 10.17660522460938 C 6.19354248046875 14.15966796875 3.999969482421875 19.45541381835938 3.999969482421875 25.08834838867188 L 3.999969482421875 434.4591064453125 C 3.999969482421875 440.0919799804688 6.19354248046875 445.3877258300781 10.17660522460938 449.3707885742188 C 14.15966796875 453.3539123535156 19.45547485351562 455.5474853515625 25.08834838867188 455.5474853515625 L 434.4602966308594 455.5474853515625 C 440.0932312011719 455.5474853515625 445.3889770507812 453.3539123535156 449.3721008300781 449.3707885742188 C 453.3551635742188 445.3877258300781 455.5487365722656 440.0919799804688 455.5487365722656 434.4591064453125 L 455.5487365722656 25.08834838867188 C 455.5487365722656 19.45541381835938 453.3551635742188 14.15966796875 449.3721008300781 10.17660522460938 C 445.3890380859375 6.19354248046875 440.0932312011719 3.999969482421875 434.4602966308594 3.999969482421875 L 25.08834838867188 3.999969482421875 M 25.08834838867188 -3.0517578125e-05 L 434.4602966308594 -3.0517578125e-05 C 448.3162841796875 -3.0517578125e-05 459.5487365722656 11.232421875 459.5487365722656 25.08834838867188 L 459.5487365722656 434.4591064453125 C 459.5487365722656 448.3149719238281 448.3162841796875 459.5474853515625 434.4602966308594 459.5474853515625 L 25.08834838867188 459.5474853515625 C 11.232421875 459.5474853515625 -3.0517578125e-05 448.3149719238281 -3.0517578125e-05 434.4591064453125 L -3.0517578125e-05 25.08834838867188 C -3.0517578125e-05 11.232421875 11.232421875 -3.0517578125e-05 25.08834838867188 -3.0517578125e-05 Z" stroke="none" fill="#fff"/>
    </g>
    <g id="Path_7" data-name="Path 7" transform="translate(704.191 459.757) rotate(25)" fill="none">
      <path d="M25.088,0H434.46a25.088,25.088,0,0,1,25.088,25.088V434.459a25.088,25.088,0,0,1-25.088,25.088H25.088A25.088,25.088,0,0,1,0,434.459V25.088A25.088,25.088,0,0,1,25.088,0Z" stroke="none"/>
      <path d="M 25.08840942382812 3.999969482421875 C 19.45547485351562 3.999969482421875 14.15972900390625 6.19354248046875 10.17666625976562 10.17660522460938 C 6.193511962890625 14.15966796875 3.999969482421875 19.45541381835938 3.999969482421875 25.08834838867188 L 3.999969482421875 434.4591064453125 C 3.999969482421875 440.0919799804688 6.193511962890625 445.3877258300781 10.17666625976562 449.3707885742188 C 14.15972900390625 453.3539123535156 19.45547485351562 455.5474853515625 25.08840942382812 455.5474853515625 L 434.4601440429688 455.5474853515625 C 440.0930786132812 455.5474853515625 445.3888244628906 453.3539123535156 449.3718872070312 449.3707885742188 C 453.3549499511719 445.3877258300781 455.5485229492188 440.0919799804688 455.5485229492188 434.4591064453125 L 455.5485229492188 25.08834838867188 C 455.5485229492188 19.45541381835938 453.3549499511719 14.15966796875 449.3718872070312 10.17660522460938 C 445.3888244628906 6.19354248046875 440.0930786132812 3.999969482421875 434.4601440429688 3.999969482421875 L 25.08840942382812 3.999969482421875 M 25.08840942382812 -3.0517578125e-05 L 434.4601440429688 -3.0517578125e-05 C 448.316162109375 -3.0517578125e-05 459.5485229492188 11.232421875 459.5485229492188 25.08834838867188 L 459.5485229492188 434.4591064453125 C 459.5485229492188 448.3149719238281 448.316162109375 459.5474853515625 434.4601440429688 459.5474853515625 L 25.08840942382812 459.5474853515625 C 11.23245239257812 459.5474853515625 -3.0517578125e-05 448.3149719238281 -3.0517578125e-05 434.4591064453125 L -3.0517578125e-05 25.08834838867188 C -3.0517578125e-05 11.232421875 11.23245239257812 -3.0517578125e-05 25.08840942382812 -3.0517578125e-05 Z" stroke="none" fill="#fff"/>
    </g>
    <g id="Path_6" data-name="Path 6" transform="translate(731.227 451.233) rotate(30)" fill="none">
      <path d="M25.088,0H434.46a25.088,25.088,0,0,1,25.088,25.088V434.459a25.088,25.088,0,0,1-25.088,25.088H25.088A25.088,25.088,0,0,1,0,434.459V25.088A25.088,25.088,0,0,1,25.088,0Z" stroke="none"/>
      <path d="M 25.08834838867188 3.999969482421875 C 19.45547485351562 3.999969482421875 14.15972900390625 6.19354248046875 10.17666625976562 10.17660522460938 C 6.19354248046875 14.15966796875 3.999969482421875 19.45547485351562 3.999969482421875 25.08834838867188 L 3.999969482421875 434.4591064453125 C 3.999969482421875 440.0919799804688 6.19354248046875 445.3877258300781 10.17666625976562 449.3707885742188 C 14.15972900390625 453.3539123535156 19.45547485351562 455.5474853515625 25.08834838867188 455.5474853515625 L 434.4599609375 455.5474853515625 C 440.0928344726562 455.5474853515625 445.3885803222656 453.3539123535156 449.3716430664062 449.370849609375 C 453.3547058105469 445.3877258300781 455.5482788085938 440.0919799804688 455.5482788085938 434.4591064453125 L 455.5482788085938 25.08834838867188 C 455.5482788085938 19.45541381835938 453.3547058105469 14.15966796875 449.3716430664062 10.17660522460938 C 445.3885803222656 6.19354248046875 440.0928955078125 3.999969482421875 434.4599609375 3.999969482421875 L 25.08834838867188 3.999969482421875 M 25.08834838867188 -3.0517578125e-05 L 434.4599609375 -3.0517578125e-05 C 448.31591796875 -3.0517578125e-05 459.5482788085938 11.232421875 459.5482788085938 25.08834838867188 L 459.5482788085938 434.4591064453125 C 459.5482788085938 448.3149719238281 448.31591796875 459.5474853515625 434.4599609375 459.5474853515625 L 25.08834838867188 459.5474853515625 C 11.23245239257812 459.5474853515625 -3.0517578125e-05 448.3149719238281 -3.0517578125e-05 434.4591064453125 L -3.0517578125e-05 25.08834838867188 C -3.0517578125e-05 11.232421875 11.23245239257812 -3.0517578125e-05 25.08834838867188 -3.0517578125e-05 Z" stroke="none" fill="#fff"/>
    </g>
    <g id="Path_5" data-name="Path 5" transform="matrix(0.819, 0.574, -0.574, 0.819, 758.903, 445.097)" fill="none">
      <path d="M25.088,0H434.46a25.088,25.088,0,0,1,25.088,25.088V434.459a25.088,25.088,0,0,1-25.088,25.088H25.088A25.088,25.088,0,0,1,0,434.459V25.088A25.088,25.088,0,0,1,25.088,0Z" stroke="none"/>
      <path d="M 25.08837890625 3.999969482421875 C 19.4554443359375 3.999969482421875 14.15969848632812 6.19354248046875 10.1766357421875 10.17660522460938 C 6.193572998046875 14.15966796875 4 19.45541381835938 4 25.08834838867188 L 4 434.4591674804688 C 4 440.0921020507812 6.193572998046875 445.3878479003906 10.1766357421875 449.3709106445312 C 14.15969848632812 453.3539733886719 19.4554443359375 455.5475463867188 25.08837890625 455.5475463867188 L 434.4597473144531 455.5475463867188 C 440.0926818847656 455.5475463867188 445.388427734375 453.3539733886719 449.3714904785156 449.3709106445312 C 453.3545532226562 445.3878479003906 455.5481262207031 440.0921020507812 455.5481262207031 434.4591674804688 L 455.5481262207031 25.08834838867188 C 455.5481262207031 19.45541381835938 453.3545532226562 14.15966796875 449.3714904785156 10.17660522460938 C 445.388427734375 6.19354248046875 440.0926818847656 3.999969482421875 434.4597473144531 3.999969482421875 L 25.08837890625 3.999969482421875 M 25.08837890625 -3.0517578125e-05 L 434.4597473144531 -3.0517578125e-05 C 448.315673828125 -3.0517578125e-05 459.5481262207031 11.232421875 459.5481262207031 25.08834838867188 L 459.5481262207031 434.4591674804688 C 459.5481262207031 448.3150939941406 448.315673828125 459.5475463867188 434.4597473144531 459.5475463867188 L 25.08837890625 459.5475463867188 C 11.23245239257812 459.5475463867188 0 448.3150939941406 0 434.4591674804688 L 0 25.08834838867188 C 0 11.232421875 11.23245239257812 -3.0517578125e-05 25.08837890625 -3.0517578125e-05 Z" stroke="none" fill="#fff"/>
    </g>
    <g id="Path_4" data-name="Path 4" transform="translate(785.481 441.678) rotate(40)" fill="none">
      <path d="M25.088,0H433.414A25.088,25.088,0,0,1,458.5,25.088V433.414A25.088,25.088,0,0,1,433.414,458.5H25.088A25.088,25.088,0,0,1,0,433.414V25.088A25.088,25.088,0,0,1,25.088,0Z" stroke="none"/>
      <path d="M 25.08834838867188 3.999969482421875 C 19.45547485351562 3.999969482421875 14.15966796875 6.19354248046875 10.17660522460938 10.17666625976562 C 6.19354248046875 14.15972900390625 4 19.45547485351562 4 25.08834838867188 L 4 433.4139709472656 C 4 439.0469055175781 6.19354248046875 444.3425903320312 10.17660522460938 448.3256530761719 C 14.15966796875 452.3087158203125 19.45541381835938 454.5022888183594 25.08834838867188 454.5022888183594 L 433.4141235351562 454.5022888183594 C 439.0469970703125 454.5022888183594 444.3427429199219 452.3087158203125 448.3258666992188 448.3256530761719 C 452.3089294433594 444.3425903320312 454.5024719238281 439.0468444824219 454.5024719238281 433.4139709472656 L 454.5024719238281 25.08834838867188 C 454.5024719238281 19.45547485351562 452.3089294433594 14.15972900390625 448.3258056640625 10.17666625976562 C 444.3427429199219 6.19354248046875 439.0469970703125 3.999969482421875 433.4141235351562 3.999969482421875 L 25.08834838867188 3.999969482421875 M 25.08834838867188 -3.0517578125e-05 L 433.4141235351562 -3.0517578125e-05 C 447.2699890136719 -3.0517578125e-05 458.5024719238281 11.23248291015625 458.5024719238281 25.08834838867188 L 458.5024719238281 433.4139709472656 C 458.5024719238281 447.2698974609375 447.2699890136719 458.5022888183594 433.4141235351562 458.5022888183594 L 25.08834838867188 458.5022888183594 C 11.232421875 458.5022888183594 0 447.2698974609375 0 433.4139709472656 L 0 25.08834838867188 C 0 11.23248291015625 11.232421875 -3.0517578125e-05 25.08834838867188 -3.0517578125e-05 Z" stroke="none" fill="#fff"/>
    </g>
    <g id="Path_3" data-name="Path 3" transform="translate(813.737 440.444) rotate(45)" fill="none">
      <path d="M25.088,0H433.414A25.088,25.088,0,0,1,458.5,25.088V433.414A25.088,25.088,0,0,1,433.414,458.5H25.088A25.088,25.088,0,0,1,0,433.414V25.088A25.088,25.088,0,0,1,25.088,0Z" stroke="none"/>
      <path d="M 25.08834838867188 3.999969482421875 C 19.45547485351562 3.999969482421875 14.15966796875 6.19354248046875 10.17660522460938 10.17666625976562 C 6.19354248046875 14.15972900390625 4 19.45547485351562 4 25.08834838867188 L 4 433.4139709472656 C 4 439.0469055175781 6.19354248046875 444.3425903320312 10.17660522460938 448.3256530761719 C 14.15966796875 452.3087158203125 19.45541381835938 454.5022888183594 25.08834838867188 454.5022888183594 L 433.4141235351562 454.5022888183594 C 439.0469970703125 454.5022888183594 444.3427429199219 452.3087158203125 448.3258666992188 448.3256530761719 C 452.3089294433594 444.3425903320312 454.5024719238281 439.0468444824219 454.5024719238281 433.4139709472656 L 454.5024719238281 25.08834838867188 C 454.5024719238281 19.45547485351562 452.3089294433594 14.15972900390625 448.3258056640625 10.17666625976562 C 444.3427429199219 6.19354248046875 439.0469970703125 3.999969482421875 433.4141235351562 3.999969482421875 L 25.08834838867188 3.999969482421875 M 25.08834838867188 -3.0517578125e-05 L 433.4141235351562 -3.0517578125e-05 C 447.2699890136719 -3.0517578125e-05 458.5024719238281 11.23248291015625 458.5024719238281 25.08834838867188 L 458.5024719238281 433.4139709472656 C 458.5024719238281 447.2698974609375 447.2699890136719 458.5022888183594 433.4141235351562 458.5022888183594 L 25.08834838867188 458.5022888183594 C 11.232421875 458.5022888183594 0 447.2698974609375 0 433.4139709472656 L 0 25.08834838867188 C 0 11.23248291015625 11.232421875 -3.0517578125e-05 25.08834838867188 -3.0517578125e-05 Z" stroke="none" fill="#fff"/>
    </g>
  </g>
</svg>
